<svg xmlns="http://www.w3.org/2000/svg" width="50" height="50" fill="none" viewBox="0 0 50 50">
  <path fill="#F60" fill-rule="evenodd" d="M30.7 23.47s-7.467 12.108-13.59 12.108c-10.707 0-.728-23.065 7.082-23.065 5.449 0 6.508 10.958 6.508 10.958Z" clip-rule="evenodd"/>
  <path fill="#F60" fill-rule="evenodd" d="M39.572 38.697a19.997 19.997 0 0 1-31.81-3.557c1.77 2.408 4.772 4.013 9.041 4.013 10.517 0 16.487-8.173 16.487-8.173s.516 6.46 6.27 7.717h.012Zm3.15-22.952a19.98 19.98 0 0 1-.481 19.395 5.947 5.947 0 0 1-2.803-3.531l-2.282-6.837 5.566-9.027ZM25.003 5.017a19.96 19.96 0 0 1 13.537 5.28l-3.788 6.112c-1.37-3.566-4.156-7.136-9.575-7.136-11.099 0-19.325 12.116-19.325 19.712-.002.982.123 1.96.373 2.91a20 20 0 0 1 9.53-24.628A20.008 20.008 0 0 1 25.002 5v.017Z" clip-rule="evenodd"/>
</svg>
